<?xml version="1.0" encoding="UTF-8"?>
<svg id="Layer_1" data-name="Layer 1" xmlns="http://www.w3.org/2000/svg" version="1.1" viewBox="0 0 215 253.3">
  <defs>
    <style>
      .cls-1 {
        fill: #86c54c;
      }

      .cls-1, .cls-2, .cls-3 {
        stroke-width: 0px;
      }

      .cls-2 {
        fill: #25b170;
      }

      .cls-3 {
        fill: #666766;
      }
    </style>
  </defs>
  <path class="cls-2" d="M200.3,50.9L14.8,27.1c-8.2,0-14.8,6.6-14.8,14.8v39.1h215v-15.3c0-8.2-6.6-14.8-14.8-14.8Z"/>
  <path class="cls-2" d="M55.3,0h0C65.6,0,73.9,8.3,73.9,18.6v32.1h-37.3V18.6C36.7,8.3,45,0,55.3,0Z"/>
  <path class="cls-2" d="M160,12h0c10.3,0,18.6,8.3,18.6,18.6v32.1h-37.3V30.6c0-10.3,8.3-18.6,18.6-18.6Z"/>
  <path class="cls-1" d="M14.8,229.5l185.5,23.8c8.2,0,14.8-6.6,14.8-14.8v-39.1S0,199.4,0,199.4v15.3c0,8.2,6.6,14.8,14.8,14.8Z"/>
  <g>
    <rect class="cls-3" x="151.1" y="139.4" width="7.2" height="7.3"/>
    <rect class="cls-3" x="140.9" y="139.4" width="7.2" height="7.3"/>
    <path class="cls-3" d="M187.2,127.7h-28.9v-20.1h-7.2v20.1H33.4v-31.8h-7.2v41c0,.7-.1,1.1-.3,1.5-.5.7-1.4,1-2.8,1h-9.7c-2.2,0-2.8-.4-3.1-2.5v-19.7H3v18.7c0,6.9,3.9,10.7,11,10.7h8.4c7.1,0,11-3.8,11-10.7v-1.1h161v-27.3h-7.2v20.1Z"/>
    <rect class="cls-3" x="187.2" y="96" width="7.2" height="7.2"/>
    <rect class="cls-3" x="177" y="96" width="7.2" height="7.2"/>
    <path class="cls-3" d="M204.8,107.6v27.1c0,3.3-1.7,4.9-5.3,4.9h-.9v7.1h1c1.4,0,2.5-.1,3.4-.2,2.8-.4,5.1-1.7,6.9-4.1,1.2-1.7,1.9-3.9,2.1-6.6,0-.7,0-1.5,0-2.5v-25.7h-7.2Z"/>
  </g>
  <g>
    <path class="cls-3" d="M17.5,184.4l-4.4-6.3h-4.8v6.3H3v-22.7h9.8c6.1,0,9.8,3.1,9.8,8.2s-1.7,5.9-4.7,7.2l5.1,7.3h-5.6ZM12.6,166h-4.3v7.9h4.3c3.2,0,4.8-1.5,4.8-3.9s-1.6-4-4.8-4Z"/>
    <path class="cls-3" d="M58,179.5h-10.5l-2,4.9h-5.4l10.1-22.7h5.2l10.1,22.7h-5.5l-2-4.9ZM56.4,175.5l-3.6-8.7-3.6,8.7h7.2Z"/>
    <path class="cls-3" d="M87.8,166h-7.3v-4.3h19.7v4.3h-7.3v18.4h-5.2v-18.4Z"/>
    <path class="cls-3" d="M136.9,180.2v4.2h-17.5v-22.7h17.1v4.2h-11.9v4.9h10.5v4.1h-10.5v5.2h12.3Z"/>
    <path class="cls-3" d="M174.9,180.2v4.2h-17.5v-22.7h17.1v4.2h-11.9v4.9h10.5v4.1h-10.5v5.2h12.3Z"/>
    <path class="cls-3" d="M195.4,161.7h5.2v18.4h11.4v4.3h-16.6v-22.7Z"/>
  </g>
</svg>